<svg width="63" height="22" viewBox="0 0 63 22" fill="none" xmlns="http://www.w3.org/2000/svg">
<path d="M4.83 12.908H12.936L12.978 14.546H4.76L4.83 12.908ZM6.706 20.258C6.706 20.482 6.63133 20.664 6.482 20.804C6.33267 20.9347 6.09467 21 5.768 21H1.288C0.970667 21 0.732667 20.9347 0.574 20.804C0.415333 20.664 0.336 20.4867 0.336 20.272C0.336 20.104 0.378 19.964 0.462 19.852C0.546 19.74 0.690667 19.628 0.896 19.516L1.274 19.348C1.57267 19.1893 1.81067 18.9793 1.988 18.718C2.16533 18.4473 2.352 17.9947 2.548 17.36L6.608 4.536C6.748 4.06 6.79 3.71467 6.734 3.5C6.678 3.276 6.48667 3.09867 6.16 2.968C5.908 2.856 5.73067 2.73467 5.628 2.604C5.53467 2.47333 5.488 2.31467 5.488 2.128C5.488 1.89467 5.56267 1.71733 5.712 1.596C5.87067 1.46533 6.11333 1.4 6.44 1.4H14.224C14.5507 1.4 14.7887 1.46533 14.938 1.596C15.0967 1.71733 15.176 1.89467 15.176 2.128C15.176 2.324 15.1247 2.48733 15.022 2.618C14.9193 2.74867 14.7607 2.856 14.546 2.94C14.3033 3.03333 14.1587 3.15933 14.112 3.318C14.0747 3.47667 14.112 3.73333 14.224 4.088L18.634 17.738C18.802 18.2513 18.9653 18.634 19.124 18.886C19.2827 19.1287 19.4973 19.3013 19.768 19.404C20.0573 19.5347 20.2487 19.6607 20.342 19.782C20.4353 19.9033 20.482 20.062 20.482 20.258C20.482 20.482 20.4027 20.664 20.244 20.804C20.0947 20.9347 19.8567 21 19.53 21H12.712C12.3853 21 12.1427 20.9347 11.984 20.804C11.8347 20.664 11.76 20.482 11.76 20.258C11.76 20.0807 11.8113 19.936 11.914 19.824C12.0167 19.7027 12.1753 19.6 12.39 19.516L13.006 19.334C13.2487 19.2407 13.3607 19.11 13.342 18.942C13.3327 18.7647 13.2673 18.4847 13.146 18.102L8.54 3.444L9.058 3.052L4.634 17.094C4.494 17.5327 4.42867 17.8873 4.438 18.158C4.45667 18.4287 4.55467 18.6573 4.732 18.844C4.90933 19.0213 5.18 19.194 5.544 19.362L6.104 19.544C6.29067 19.628 6.43533 19.726 6.538 19.838C6.65 19.9407 6.706 20.0807 6.706 20.258ZM28.2367 8.372V18.564C28.2367 18.8813 28.2694 19.11 28.3347 19.25C28.4094 19.39 28.5214 19.488 28.6707 19.544L29.1047 19.684C29.2914 19.7493 29.4267 19.838 29.5107 19.95C29.5947 20.062 29.6367 20.1927 29.6367 20.342C29.6367 20.5473 29.5667 20.7107 29.4267 20.832C29.296 20.944 29.0814 21 28.7827 21H22.8047C22.5154 21 22.3007 20.944 22.1607 20.832C22.03 20.7107 21.9647 20.5473 21.9647 20.342C21.9647 20.1927 22.0067 20.062 22.0907 19.95C22.1747 19.838 22.31 19.7493 22.4967 19.684L22.9447 19.544C23.094 19.4787 23.2014 19.3807 23.2667 19.25C23.332 19.11 23.3647 18.8813 23.3647 18.564V11.018C23.3647 10.766 23.3274 10.5887 23.2527 10.486C23.1874 10.374 23.08 10.2993 22.9307 10.262L22.3847 10.192C22.2074 10.1453 22.0814 10.0753 22.0067 9.982C21.932 9.88867 21.8947 9.76733 21.8947 9.618C21.8947 9.44067 21.9414 9.30067 22.0347 9.198C22.1374 9.09533 22.324 8.99267 22.5947 8.89L25.6187 7.784C26.02 7.63467 26.3374 7.532 26.5707 7.476C26.804 7.41067 27.0094 7.378 27.1867 7.378C27.5414 7.378 27.8027 7.47133 27.9707 7.658C28.148 7.83533 28.2367 8.07333 28.2367 8.372ZM25.5207 5.726C24.634 5.726 23.9294 5.50667 23.4067 5.068C22.8934 4.62933 22.6367 4.046 22.6367 3.318C22.6367 2.59 22.8934 2.01133 23.4067 1.582C23.9294 1.15267 24.634 0.937999 25.5207 0.937999C26.4074 0.937999 27.112 1.15267 27.6347 1.582C28.1574 2.01133 28.4187 2.59 28.4187 3.318C28.4187 4.046 28.1574 4.62933 27.6347 5.068C27.112 5.50667 26.4074 5.726 25.5207 5.726ZM41.0922 18.676L40.9522 18.634V3.668C40.9522 3.416 40.9149 3.23867 40.8402 3.136C40.7655 3.024 40.6535 2.94933 40.5042 2.912L39.9582 2.842C39.7902 2.79533 39.6642 2.72533 39.5802 2.632C39.5055 2.53867 39.4682 2.41733 39.4682 2.268C39.4682 2.09067 39.5195 1.95067 39.6222 1.848C39.7249 1.74533 39.9115 1.64267 40.1822 1.54L43.1922 0.447999C43.5842 0.298666 43.8969 0.191332 44.1302 0.125999C44.3635 0.0606662 44.5922 0.0279996 44.8162 0.0279996C45.1429 0.0279996 45.3902 0.121333 45.5582 0.307999C45.7355 0.494666 45.8242 0.732666 45.8242 1.022V18.564C45.8242 18.8813 45.8569 19.11 45.9222 19.25C45.9875 19.39 46.0949 19.488 46.2442 19.544L46.6782 19.684C46.8649 19.7493 47.0002 19.838 47.0842 19.95C47.1682 20.062 47.2102 20.1927 47.2102 20.342C47.2102 20.5473 47.1402 20.7107 47.0002 20.832C46.8695 20.944 46.6595 21 46.3702 21H42.9822C42.4689 21 42.0255 20.8227 41.6522 20.468C41.2789 20.1133 41.0922 19.6747 41.0922 19.152V18.676ZM31.0542 14.756C31.0542 13.2627 31.3529 11.9607 31.9502 10.85C32.5569 9.73933 33.3782 8.876 34.4142 8.26C35.4502 7.644 36.6169 7.336 37.9142 7.336C39.0155 7.336 39.9769 7.57867 40.7982 8.064C41.6195 8.54933 42.3149 9.268 42.8842 10.22L41.7222 11.074C41.3022 10.402 40.8542 9.912 40.3782 9.604C39.9115 9.296 39.4075 9.142 38.8662 9.142C38.3249 9.142 37.8442 9.31467 37.4242 9.66C37.0135 10.0053 36.6869 10.556 36.4442 11.312C36.2109 12.0587 36.0942 13.0387 36.0942 14.252C36.0942 15.372 36.2109 16.2867 36.4442 16.996C36.6775 17.696 36.9949 18.214 37.3962 18.55C37.8069 18.886 38.2735 19.054 38.7962 19.054C39.3749 19.054 39.9115 18.872 40.4062 18.508C40.9102 18.1347 41.3769 17.556 41.8062 16.772L42.5622 17.584C41.8155 18.7693 40.9662 19.698 40.0142 20.37C39.0622 21.0327 37.9889 21.364 36.7942 21.364C35.6929 21.364 34.7082 21.084 33.8402 20.524C32.9815 19.964 32.3002 19.1893 31.7962 18.2C31.3015 17.2107 31.0542 16.0627 31.0542 14.756ZM62.2276 12.726C62.2276 13.258 62.0783 13.6687 61.7796 13.958C61.4809 14.2473 61.0516 14.392 60.4916 14.392H51.9516V13.216H56.6836C57.1503 13.216 57.3836 13.0013 57.3836 12.572C57.3836 11.312 57.2016 10.388 56.8376 9.8C56.4736 9.20267 55.9976 8.904 55.4096 8.904C54.9616 8.904 54.5603 9.05333 54.2056 9.352C53.8603 9.65067 53.5849 10.0987 53.3796 10.696C53.1836 11.284 53.0856 12.012 53.0856 12.88C53.0856 14.6533 53.4869 15.9693 54.2896 16.828C55.1016 17.6773 56.1843 18.102 57.5376 18.102C58.2843 18.102 58.9423 17.9713 59.5116 17.71C60.0903 17.4487 60.5663 17.0427 60.9396 16.492C61.1449 16.296 61.2989 16.1653 61.4016 16.1C61.5136 16.0253 61.6256 15.988 61.7376 15.988C61.8869 15.988 61.9989 16.0627 62.0736 16.212C62.1483 16.352 62.1856 16.5293 62.1856 16.744C62.1669 17.5747 61.8869 18.34 61.3456 19.04C60.8043 19.74 60.0623 20.3047 59.1196 20.734C58.1863 21.154 57.1036 21.364 55.8716 21.364C54.4996 21.364 53.2723 21.084 52.1896 20.524C51.1163 19.964 50.2716 19.1847 49.6556 18.186C49.0396 17.1873 48.7316 16.016 48.7316 14.672C48.7316 13.216 49.0209 11.9373 49.5996 10.836C50.1783 9.73467 51.0136 8.876 52.1056 8.26C53.2069 7.644 54.5229 7.336 56.0536 7.336C57.3789 7.336 58.4989 7.56933 59.4136 8.036C60.3376 8.50267 61.0376 9.142 61.5136 9.954C61.9896 10.7567 62.2276 11.6807 62.2276 12.726Z" fill="#0B0A0A"/>
</svg>
